<svg xmlns="http://www.w3.org/2000/svg" xmlns:xlink="http://www.w3.org/1999/xlink" width="500" zoomAndPan="magnify" viewBox="0 0 375 225" height="300" preserveAspectRatio="xMidYMid meet" version="1.0"><defs><g/><clipPath id="5aa84b1310"><path d="M 16 63.871094 L 71 63.871094 L 71 161.371094 L 16 161.371094 Z M 16 63.871094 " clip-rule="nonzero"/></clipPath></defs><path fill="#2b80ff" d="M 58.492188 85.714844 C 58.425781 85.675781 58.359375 85.640625 58.292969 85.601562 C 57.5 85.160156 56.699219 84.753906 55.890625 84.375 C 38.773438 76.421875 18.164062 82.917969 8.832031 99.671875 C 2.792969 110.511719 2.890625 123.105469 7.984375 133.457031 C 0.765625 121.28125 0.03125 105.695312 7.417969 92.4375 C 18.46875 72.601562 43.507812 65.480469 63.347656 76.53125 Z M 58.492188 85.714844 " fill-opacity="1" fill-rule="nonzero"/><path fill="#2b80ff" d="M 79.253906 132.460938 C 68.203125 152.296875 43.164062 159.417969 23.324219 148.367188 L 28.160156 139.171875 L 28.378906 139.296875 C 29.152344 139.722656 29.929688 140.121094 30.714844 140.488281 C 47.84375 148.492188 68.496094 142 77.839844 125.226562 C 83.878906 114.390625 83.78125 101.796875 78.691406 91.449219 C 85.910156 103.625 86.640625 119.203125 79.253906 132.460938 Z M 79.253906 132.460938 " fill-opacity="1" fill-rule="nonzero"/><g clip-path="url(#5aa84b1310)"><path fill="#ffbc11" d="M 67.703125 106.363281 L 26.339844 150.457031 L 16.332031 161.125 L 22.878906 148.671875 L 38.765625 118.445312 L 17.988281 119.136719 L 60.417969 74.492188 L 70.511719 63.871094 L 63.941406 76.304688 L 47.695312 107.042969 Z M 67.703125 106.363281 " fill-opacity="1" fill-rule="nonzero"/></g><g fill="#000000" fill-opacity="1"><g transform="translate(93.250262, 121.500005)"><g><path d="M 1.671875 -16.6875 L 8.9375 -16.6875 C 11.070312 -16.6875 12.726562 -16.179688 13.90625 -15.171875 C 15.082031 -14.160156 15.671875 -12.726562 15.671875 -10.875 C 15.671875 -8.914062 15.082031 -7.394531 13.90625 -6.3125 C 12.726562 -5.238281 11.070312 -4.703125 8.9375 -4.703125 L 5.90625 -4.703125 L 5.90625 0 L 1.671875 0 Z M 5.90625 -13.359375 L 5.90625 -8.03125 L 8.734375 -8.03125 C 9.671875 -8.03125 10.390625 -8.257812 10.890625 -8.71875 C 11.398438 -9.1875 11.65625 -9.859375 11.65625 -10.734375 C 11.65625 -11.585938 11.398438 -12.238281 10.890625 -12.6875 C 10.390625 -13.132812 9.671875 -13.359375 8.734375 -13.359375 Z M 5.90625 -13.359375 "/></g></g></g><g fill="#000000" fill-opacity="1"><g transform="translate(110.659262, 121.500005)"><g><path d="M 9.578125 -16.828125 C 12.171875 -16.828125 14.328125 -16.019531 16.046875 -14.40625 C 17.765625 -12.800781 18.625 -10.789062 18.625 -8.375 C 18.625 -5.9375 17.757812 -3.898438 16.03125 -2.265625 C 14.3125 -0.628906 12.160156 0.1875 9.578125 0.1875 C 7.003906 0.1875 4.859375 -0.625 3.140625 -2.25 C 1.429688 -3.882812 0.578125 -5.925781 0.578125 -8.375 C 0.578125 -10.800781 1.429688 -12.816406 3.140625 -14.421875 C 4.859375 -16.023438 7.003906 -16.828125 9.578125 -16.828125 Z M 9.640625 -13.28125 C 8.328125 -13.28125 7.207031 -12.804688 6.28125 -11.859375 C 5.363281 -10.910156 4.90625 -9.738281 4.90625 -8.34375 C 4.90625 -6.945312 5.367188 -5.765625 6.296875 -4.796875 C 7.234375 -3.835938 8.34375 -3.359375 9.625 -3.359375 C 10.914062 -3.359375 12.007812 -3.835938 12.90625 -4.796875 C 13.8125 -5.765625 14.265625 -6.945312 14.265625 -8.34375 C 14.265625 -9.738281 13.8125 -10.910156 12.90625 -11.859375 C 12.007812 -12.804688 10.921875 -13.28125 9.640625 -13.28125 Z M 9.640625 -13.28125 "/></g></g></g><g fill="#000000" fill-opacity="1"><g transform="translate(131.04922, 121.500005)"><g><path d="M 20.4375 0 L 16.078125 0 L 12.96875 -11.546875 L 9.828125 0 L 5.4375 0 L -0.03125 -16.6875 L 4.5 -16.6875 L 7.765625 -4.40625 L 10.96875 -16.6875 L 15.109375 -16.6875 L 18.390625 -4.40625 L 21.609375 -16.6875 L 25.9375 -16.6875 Z M 20.4375 0 "/></g></g></g><g fill="#000000" fill-opacity="1"><g transform="translate(158.021141, 121.500005)"><g><path d="M 14.734375 -13.359375 L 5.90625 -13.359375 L 5.90625 -10.03125 L 13.875 -10.03125 L 13.875 -6.703125 L 5.90625 -6.703125 L 5.90625 -3.34375 L 15 -3.34375 L 15 0 L 1.671875 0 L 1.671875 -16.6875 L 14.734375 -16.6875 Z M 14.734375 -13.359375 "/></g></g></g><g fill="#000000" fill-opacity="1"><g transform="translate(175.287059, 121.500005)"><g><path d="M 11.734375 0 L 9.25 -4.703125 L 5.90625 -4.703125 L 5.90625 0 L 1.671875 0 L 1.671875 -16.6875 L 9.125 -16.6875 C 11.34375 -16.6875 13.054688 -16.179688 14.265625 -15.171875 C 15.472656 -14.160156 16.078125 -12.726562 16.078125 -10.875 C 16.078125 -8.300781 15.066406 -6.515625 13.046875 -5.515625 L 16.546875 0 Z M 5.90625 -8.03125 L 9.125 -8.03125 C 10.050781 -8.03125 10.769531 -8.257812 11.28125 -8.71875 C 11.789062 -9.1875 12.046875 -9.859375 12.046875 -10.734375 C 12.046875 -11.585938 11.789062 -12.238281 11.28125 -12.6875 C 10.769531 -13.132812 10.050781 -13.359375 9.125 -13.359375 L 5.90625 -13.359375 Z M 5.90625 -8.03125 "/></g></g></g><g fill="#000000" fill-opacity="1"><g transform="translate(193.74536, 121.500005)"><g><path d="M 14.734375 -13.359375 L 5.90625 -13.359375 L 5.90625 -10.03125 L 13.875 -10.03125 L 13.875 -6.703125 L 5.90625 -6.703125 L 5.90625 -3.34375 L 15 -3.34375 L 15 0 L 1.671875 0 L 1.671875 -16.6875 L 14.734375 -16.6875 Z M 14.734375 -13.359375 "/></g></g></g><g fill="#000000" fill-opacity="1"><g transform="translate(211.011278, 121.500005)"><g><path d="M 1.671875 -16.6875 L 8.84375 -16.6875 C 11.46875 -16.6875 13.601562 -15.914062 15.25 -14.375 C 16.894531 -12.832031 17.71875 -10.820312 17.71875 -8.34375 C 17.71875 -5.882812 16.878906 -3.878906 15.203125 -2.328125 C 13.535156 -0.773438 11.359375 0 8.671875 0 L 1.671875 0 Z M 5.90625 -13.3125 L 5.90625 -3.390625 L 8.9375 -3.390625 C 10.238281 -3.390625 11.304688 -3.84375 12.140625 -4.75 C 12.984375 -5.664062 13.40625 -6.851562 13.40625 -8.3125 C 13.40625 -9.78125 12.96875 -10.976562 12.09375 -11.90625 C 11.21875 -12.84375 10.101562 -13.3125 8.75 -13.3125 Z M 5.90625 -13.3125 "/></g></g></g><g fill="#000000" fill-opacity="1"><g transform="translate(230.495027, 121.500005)"><g/></g></g><g fill="#000000" fill-opacity="1"><g transform="translate(237.220262, 121.500005)"><g><path d="M 1.671875 -16.6875 L 9.5625 -16.6875 C 11.4375 -16.6875 12.925781 -16.304688 14.03125 -15.546875 C 15.132812 -14.796875 15.6875 -13.785156 15.6875 -12.515625 C 15.6875 -11.640625 15.429688 -10.875 14.921875 -10.21875 C 14.410156 -9.5625 13.710938 -9.101562 12.828125 -8.84375 C 13.878906 -8.632812 14.710938 -8.148438 15.328125 -7.390625 C 15.953125 -6.628906 16.265625 -5.707031 16.265625 -4.625 C 16.265625 -3.207031 15.6875 -2.082031 14.53125 -1.25 C 13.375 -0.414062 11.8125 0 9.84375 0 L 1.671875 0 Z M 5.890625 -13.453125 L 5.890625 -10.015625 L 9.328125 -10.015625 C 9.941406 -10.015625 10.429688 -10.164062 10.796875 -10.46875 C 11.160156 -10.78125 11.34375 -11.207031 11.34375 -11.75 C 11.34375 -12.28125 11.160156 -12.695312 10.796875 -13 C 10.429688 -13.300781 9.941406 -13.453125 9.328125 -13.453125 Z M 5.890625 -6.96875 L 5.890625 -3.265625 L 9.328125 -3.265625 C 10.117188 -3.265625 10.738281 -3.429688 11.1875 -3.765625 C 11.644531 -4.097656 11.875 -4.5625 11.875 -5.15625 C 11.875 -5.707031 11.644531 -6.144531 11.1875 -6.46875 C 10.738281 -6.800781 10.117188 -6.96875 9.328125 -6.96875 Z M 5.890625 -6.96875 "/></g></g></g><g fill="#000000" fill-opacity="1"><g transform="translate(255.463928, 121.500005)"><g><path d="M 10.28125 -5.390625 L 10.28125 0 L 6.0625 0 L 6.0625 -5.265625 L -0.125 -16.6875 L 4.125 -16.6875 L 8.15625 -9.421875 L 12.09375 -16.6875 L 16.328125 -16.6875 Z M 10.28125 -5.390625 "/></g></g></g><g fill="#000000" fill-opacity="1"><g transform="translate(272.872932, 121.500005)"><g/></g></g><g fill="#000000" fill-opacity="1"><g transform="translate(279.598167, 121.500005)"><g><path d="M 17.953125 -0.53125 L 19.453125 2.09375 C 18.816406 2.664062 18.0625 3.113281 17.1875 3.4375 C 16.3125 3.769531 15.453125 3.9375 14.609375 3.9375 C 13.472656 3.9375 12.429688 3.601562 11.484375 2.9375 C 10.546875 2.28125 9.800781 1.363281 9.25 0.1875 C 6.757812 0.113281 4.691406 -0.734375 3.046875 -2.359375 C 1.398438 -3.984375 0.578125 -5.988281 0.578125 -8.375 C 0.578125 -10.800781 1.429688 -12.816406 3.140625 -14.421875 C 4.859375 -16.023438 7.003906 -16.828125 9.578125 -16.828125 C 12.171875 -16.828125 14.328125 -16.019531 16.046875 -14.40625 C 17.765625 -12.800781 18.625 -10.789062 18.625 -8.375 C 18.625 -6.539062 18.117188 -4.90625 17.109375 -3.46875 C 16.097656 -2.039062 14.75 -1.019531 13.0625 -0.40625 C 13.664062 0.351562 14.34375 0.734375 15.09375 0.734375 C 15.90625 0.734375 16.859375 0.3125 17.953125 -0.53125 Z M 6.28125 -11.859375 C 5.363281 -10.910156 4.90625 -9.738281 4.90625 -8.34375 C 4.90625 -6.945312 5.367188 -5.765625 6.296875 -4.796875 C 7.234375 -3.835938 8.34375 -3.359375 9.625 -3.359375 C 10.914062 -3.359375 12.007812 -3.835938 12.90625 -4.796875 C 13.8125 -5.765625 14.265625 -6.945312 14.265625 -8.34375 C 14.265625 -9.738281 13.8125 -10.910156 12.90625 -11.859375 C 12.007812 -12.804688 10.921875 -13.28125 9.640625 -13.28125 C 8.328125 -13.28125 7.207031 -12.804688 6.28125 -11.859375 Z M 6.28125 -11.859375 "/></g></g></g><g fill="#000000" fill-opacity="1"><g transform="translate(300.107363, 121.500005)"><g><path d="M 1.671875 -16.6875 L 8.9375 -16.6875 C 11.070312 -16.6875 12.726562 -16.179688 13.90625 -15.171875 C 15.082031 -14.160156 15.671875 -12.726562 15.671875 -10.875 C 15.671875 -8.914062 15.082031 -7.394531 13.90625 -6.3125 C 12.726562 -5.238281 11.070312 -4.703125 8.9375 -4.703125 L 5.90625 -4.703125 L 5.90625 0 L 1.671875 0 Z M 5.90625 -13.359375 L 5.90625 -8.03125 L 8.734375 -8.03125 C 9.671875 -8.03125 10.390625 -8.257812 10.890625 -8.71875 C 11.398438 -9.1875 11.65625 -9.859375 11.65625 -10.734375 C 11.65625 -11.585938 11.398438 -12.238281 10.890625 -12.6875 C 10.390625 -13.132812 9.671875 -13.359375 8.734375 -13.359375 Z M 5.90625 -13.359375 "/></g></g></g><g fill="#000000" fill-opacity="1"><g transform="translate(317.516367, 121.500005)"><g><path d="M 20 0 L 16.265625 0 L 16.234375 -10.84375 L 12.234375 -1.671875 L 9.46875 -1.671875 L 5.453125 -10.84375 L 5.453125 0 L 1.671875 0 L 1.671875 -16.71875 L 6.3125 -16.71875 L 10.84375 -6.765625 L 15.375 -16.71875 L 20 -16.71875 Z M 20 0 "/></g></g></g></svg>